# xmcd CD database file
#
# Track frame offsets:
#	150
#	15493
#	34724
#	47081
#	65082
#	80129
#	94170
#	112002
#	124638
#	142278
#	164348
#	182024
#
# Disc length: 2693 seconds
#
# Revision: 0
# Processed by: cddbd v1.5.2PL0 Copyright (c) Steve Scherf et al.
# Submitted via: CDex 1.51
#
DISCID=a90a830c
DTITLE=The Lonestar Chain - The Lonestar Chain
DYEAR=2008
DGENRE=Country
TTITLE0=Don't Look Back
TTITLE1=The Gasoline Age
TTITLE2=I Stand Corrected
TTITLE3=Where Are You Tonight?
TTITLE4=Abilene
TTITLE5=Black Horse Acre
TTITLE6=The Cruel Side
TTITLE7=Joe Henry
TTITLE8=Make Me See Stars
TTITLE9=Pay Phone Blues
TTITLE10=Saturday Night
TTITLE11=Water On Fire
EXTD=YEAR: 2008
EXTT0=
EXTT1=
EXTT2=
EXTT3=
EXTT4=
EXTT5=
EXTT6=
EXTT7=
EXTT8=
EXTT9=
EXTT10=
EXTT11=
PLAYORDER=
